<svg xmlns="http://www.w3.org/2000/svg" width="30" height="26" viewBox="0 0 30 26">
  <path fill="#55ACEE" d="M26.5,4.7 C27.8,3.9 28.7,2.7 29.2,1.3 C27.8,2 26.5,2.5 25.2,2.7 C24.1,1.5 22.6,0.8 20.8,0.8 C19.1,0.8 17.6,1.4 16.4,2.6 C15.2,3.8 14.6,5.3 14.6,7 C14.6,7.5 14.7,7.9 14.8,8.3 C9.7,8.2 5.4,6 2.1,1.9 C1.5,2.9 1.2,4 1.2,5 C1.2,7.2 2.2,8.9 4,10.2 C2.9,10.1 2,9.8 1.2,9.4 C1.2,10.9 1.7,12.2 2.6,13.4 C3.5,14.5 4.7,15.2 6.1,15.5 C5.6,15.6 5.1,15.7 4.5,15.7 C4,15.7 3.6,15.7 3.4,15.6 C3.8,16.8 4.5,17.9 5.5,18.6 C6.6,19.4 7.8,19.8 9.1,19.9 C6.9,21.6 4.4,22.5 1.5,22.5 C0.8,22.5 0.3,22.5 3.55271368e-15,22.4 C2.8,24.3 6,25.2 9.5,25.2 C13,25.2 16.2,24.3 18.9,22.5 C21.7,20.7 23.7,18.4 25,15.8 C26.3,13.2 26.9,10.5 26.9,7.7 L26.9,6.9 C28.2,6 29.2,4.9 30,3.7 C28.9,4.2 27.7,4.5 26.5,4.7 Z"/>
</svg>
