<svg width="10" height="16" viewBox="0 0 10 16" fill="none" xmlns="http://www.w3.org/2000/svg">
<path fill-rule="evenodd" clip-rule="evenodd" d="M1.5 0.125C1.73206 0.125 1.95462 0.217187 2.11872 0.381282C2.28281 0.545376 2.375 0.767936 2.375 1V15C2.375 15.2321 2.28281 15.4546 2.11872 15.6187C1.95462 15.7828 1.73206 15.875 1.5 15.875C1.26794 15.875 1.04538 15.7828 0.881282 15.6187C0.717187 15.4546 0.625 15.2321 0.625 15V1C0.625 0.767936 0.717187 0.545376 0.881282 0.381282C1.04538 0.217187 1.26794 0.125 1.5 0.125V0.125ZM8.5 0.125C8.73206 0.125 8.95462 0.217187 9.11872 0.381282C9.28281 0.545376 9.375 0.767936 9.375 1V15C9.375 15.2321 9.28281 15.4546 9.11872 15.6187C8.95462 15.7828 8.73206 15.875 8.5 15.875C8.26794 15.875 8.04538 15.7828 7.88128 15.6187C7.71719 15.4546 7.625 15.2321 7.625 15V1C7.625 0.767936 7.71719 0.545376 7.88128 0.381282C8.04538 0.217187 8.26794 0.125 8.5 0.125V0.125Z" fill="black"/>
</svg>
